%TF.GenerationSoftware,KiCad,Pcbnew,8.0.1*%
%TF.CreationDate,2024-06-16T17:47:39-07:00*%
%TF.ProjectId,eddy_pcb_coil,65646479-5f70-4636-925f-636f696c2e6b,rev?*%
%TF.SameCoordinates,Original*%
%TF.FileFunction,Legend,Bot*%
%TF.FilePolarity,Positive*%
%FSLAX46Y46*%
G04 Gerber Fmt 4.6, Leading zero omitted, Abs format (unit mm)*
G04 Created by KiCad (PCBNEW 8.0.1) date 2024-06-16 17:47:39*
%MOMM*%
%LPD*%
G01*
G04 APERTURE LIST*
%ADD10C,0.100000*%
%ADD11C,0.200000*%
%ADD12C,3.200000*%
%ADD13R,1.700000X1.700000*%
%ADD14O,1.700000X1.700000*%
%ADD15C,0.600000*%
%ADD16C,2.240000*%
%ADD17C,2.740000*%
G04 APERTURE END LIST*
D10*
X170638738Y-67437000D02*
G75*
G02*
X156638738Y-67437000I-7000000J0D01*
G01*
X156638738Y-67437000D02*
G75*
G02*
X170638738Y-67437000I7000000J0D01*
G01*
X179603401Y-67437000D02*
G75*
G02*
X147674075Y-67437000I-15964663J0D01*
G01*
X147674075Y-67437000D02*
G75*
G02*
X179603401Y-67437000I15964663J0D01*
G01*
D11*
X175922231Y-48004838D02*
X175922231Y-46004838D01*
X175922231Y-46004838D02*
X175160326Y-46004838D01*
X175160326Y-46004838D02*
X174969850Y-46100076D01*
X174969850Y-46100076D02*
X174874612Y-46195314D01*
X174874612Y-46195314D02*
X174779374Y-46385790D01*
X174779374Y-46385790D02*
X174779374Y-46671504D01*
X174779374Y-46671504D02*
X174874612Y-46861980D01*
X174874612Y-46861980D02*
X174969850Y-46957219D01*
X174969850Y-46957219D02*
X175160326Y-47052457D01*
X175160326Y-47052457D02*
X175922231Y-47052457D01*
X172969850Y-48004838D02*
X173922231Y-48004838D01*
X173922231Y-48004838D02*
X173922231Y-46004838D01*
X172398421Y-47433409D02*
X171446040Y-47433409D01*
X172588897Y-48004838D02*
X171922231Y-46004838D01*
X171922231Y-46004838D02*
X171255564Y-48004838D01*
X170588897Y-48004838D02*
X170588897Y-46004838D01*
X170588897Y-46004838D02*
X169446040Y-48004838D01*
X169446040Y-48004838D02*
X169446040Y-46004838D01*
X168588897Y-47433409D02*
X167636516Y-47433409D01*
X168779373Y-48004838D02*
X168112707Y-46004838D01*
X168112707Y-46004838D02*
X167446040Y-48004838D01*
X165636516Y-48004838D02*
X166303183Y-47052457D01*
X166779373Y-48004838D02*
X166779373Y-46004838D01*
X166779373Y-46004838D02*
X166017468Y-46004838D01*
X166017468Y-46004838D02*
X165826992Y-46100076D01*
X165826992Y-46100076D02*
X165731754Y-46195314D01*
X165731754Y-46195314D02*
X165636516Y-46385790D01*
X165636516Y-46385790D02*
X165636516Y-46671504D01*
X165636516Y-46671504D02*
X165731754Y-46861980D01*
X165731754Y-46861980D02*
X165826992Y-46957219D01*
X165826992Y-46957219D02*
X166017468Y-47052457D01*
X166017468Y-47052457D02*
X166779373Y-47052457D01*
X162112706Y-47814361D02*
X162207944Y-47909600D01*
X162207944Y-47909600D02*
X162493658Y-48004838D01*
X162493658Y-48004838D02*
X162684134Y-48004838D01*
X162684134Y-48004838D02*
X162969849Y-47909600D01*
X162969849Y-47909600D02*
X163160325Y-47719123D01*
X163160325Y-47719123D02*
X163255563Y-47528647D01*
X163255563Y-47528647D02*
X163350801Y-47147695D01*
X163350801Y-47147695D02*
X163350801Y-46861980D01*
X163350801Y-46861980D02*
X163255563Y-46481028D01*
X163255563Y-46481028D02*
X163160325Y-46290552D01*
X163160325Y-46290552D02*
X162969849Y-46100076D01*
X162969849Y-46100076D02*
X162684134Y-46004838D01*
X162684134Y-46004838D02*
X162493658Y-46004838D01*
X162493658Y-46004838D02*
X162207944Y-46100076D01*
X162207944Y-46100076D02*
X162112706Y-46195314D01*
X160874611Y-46004838D02*
X160493658Y-46004838D01*
X160493658Y-46004838D02*
X160303182Y-46100076D01*
X160303182Y-46100076D02*
X160112706Y-46290552D01*
X160112706Y-46290552D02*
X160017468Y-46671504D01*
X160017468Y-46671504D02*
X160017468Y-47338171D01*
X160017468Y-47338171D02*
X160112706Y-47719123D01*
X160112706Y-47719123D02*
X160303182Y-47909600D01*
X160303182Y-47909600D02*
X160493658Y-48004838D01*
X160493658Y-48004838D02*
X160874611Y-48004838D01*
X160874611Y-48004838D02*
X161065087Y-47909600D01*
X161065087Y-47909600D02*
X161255563Y-47719123D01*
X161255563Y-47719123D02*
X161350801Y-47338171D01*
X161350801Y-47338171D02*
X161350801Y-46671504D01*
X161350801Y-46671504D02*
X161255563Y-46290552D01*
X161255563Y-46290552D02*
X161065087Y-46100076D01*
X161065087Y-46100076D02*
X160874611Y-46004838D01*
X159160325Y-48004838D02*
X159160325Y-46004838D01*
X157255563Y-48004838D02*
X158207944Y-48004838D01*
X158207944Y-48004838D02*
X158207944Y-46004838D01*
X155350800Y-46004838D02*
X154207943Y-46004838D01*
X154779372Y-48004838D02*
X154779372Y-46004838D01*
X153541276Y-46957219D02*
X152874609Y-46957219D01*
X152588895Y-48004838D02*
X153541276Y-48004838D01*
X153541276Y-48004838D02*
X153541276Y-46004838D01*
X153541276Y-46004838D02*
X152588895Y-46004838D01*
X151826990Y-47909600D02*
X151541276Y-48004838D01*
X151541276Y-48004838D02*
X151065085Y-48004838D01*
X151065085Y-48004838D02*
X150874609Y-47909600D01*
X150874609Y-47909600D02*
X150779371Y-47814361D01*
X150779371Y-47814361D02*
X150684133Y-47623885D01*
X150684133Y-47623885D02*
X150684133Y-47433409D01*
X150684133Y-47433409D02*
X150779371Y-47242933D01*
X150779371Y-47242933D02*
X150874609Y-47147695D01*
X150874609Y-47147695D02*
X151065085Y-47052457D01*
X151065085Y-47052457D02*
X151446038Y-46957219D01*
X151446038Y-46957219D02*
X151636514Y-46861980D01*
X151636514Y-46861980D02*
X151731752Y-46766742D01*
X151731752Y-46766742D02*
X151826990Y-46576266D01*
X151826990Y-46576266D02*
X151826990Y-46385790D01*
X151826990Y-46385790D02*
X151731752Y-46195314D01*
X151731752Y-46195314D02*
X151636514Y-46100076D01*
X151636514Y-46100076D02*
X151446038Y-46004838D01*
X151446038Y-46004838D02*
X150969847Y-46004838D01*
X150969847Y-46004838D02*
X150684133Y-46100076D01*
X150112704Y-46004838D02*
X148969847Y-46004838D01*
X149541276Y-48004838D02*
X149541276Y-46004838D01*
X146779370Y-48004838D02*
X146779370Y-46004838D01*
X146779370Y-46004838D02*
X146017465Y-46004838D01*
X146017465Y-46004838D02*
X145826989Y-46100076D01*
X145826989Y-46100076D02*
X145731751Y-46195314D01*
X145731751Y-46195314D02*
X145636513Y-46385790D01*
X145636513Y-46385790D02*
X145636513Y-46671504D01*
X145636513Y-46671504D02*
X145731751Y-46861980D01*
X145731751Y-46861980D02*
X145826989Y-46957219D01*
X145826989Y-46957219D02*
X146017465Y-47052457D01*
X146017465Y-47052457D02*
X146779370Y-47052457D01*
X143636513Y-47814361D02*
X143731751Y-47909600D01*
X143731751Y-47909600D02*
X144017465Y-48004838D01*
X144017465Y-48004838D02*
X144207941Y-48004838D01*
X144207941Y-48004838D02*
X144493656Y-47909600D01*
X144493656Y-47909600D02*
X144684132Y-47719123D01*
X144684132Y-47719123D02*
X144779370Y-47528647D01*
X144779370Y-47528647D02*
X144874608Y-47147695D01*
X144874608Y-47147695D02*
X144874608Y-46861980D01*
X144874608Y-46861980D02*
X144779370Y-46481028D01*
X144779370Y-46481028D02*
X144684132Y-46290552D01*
X144684132Y-46290552D02*
X144493656Y-46100076D01*
X144493656Y-46100076D02*
X144207941Y-46004838D01*
X144207941Y-46004838D02*
X144017465Y-46004838D01*
X144017465Y-46004838D02*
X143731751Y-46100076D01*
X143731751Y-46100076D02*
X143636513Y-46195314D01*
X142112703Y-46957219D02*
X141826989Y-47052457D01*
X141826989Y-47052457D02*
X141731751Y-47147695D01*
X141731751Y-47147695D02*
X141636513Y-47338171D01*
X141636513Y-47338171D02*
X141636513Y-47623885D01*
X141636513Y-47623885D02*
X141731751Y-47814361D01*
X141731751Y-47814361D02*
X141826989Y-47909600D01*
X141826989Y-47909600D02*
X142017465Y-48004838D01*
X142017465Y-48004838D02*
X142779370Y-48004838D01*
X142779370Y-48004838D02*
X142779370Y-46004838D01*
X142779370Y-46004838D02*
X142112703Y-46004838D01*
X142112703Y-46004838D02*
X141922227Y-46100076D01*
X141922227Y-46100076D02*
X141826989Y-46195314D01*
X141826989Y-46195314D02*
X141731751Y-46385790D01*
X141731751Y-46385790D02*
X141731751Y-46576266D01*
X141731751Y-46576266D02*
X141826989Y-46766742D01*
X141826989Y-46766742D02*
X141922227Y-46861980D01*
X141922227Y-46861980D02*
X142112703Y-46957219D01*
X142112703Y-46957219D02*
X142779370Y-46957219D01*
%LPC*%
D12*
%TO.C,H4*%
X184150000Y-85090000D03*
%TD*%
%TO.C,H3*%
X133350000Y-85090000D03*
%TD*%
%TO.C,H2*%
X184150000Y-46990000D03*
%TD*%
%TO.C,H1*%
X133350000Y-46990000D03*
%TD*%
D13*
%TO.C,J2*%
X141757400Y-68686600D03*
D14*
X141757400Y-66146600D03*
%TD*%
D15*
%TO.C,L1*%
X156911200Y-67479800D03*
%TD*%
D16*
%TO.C,J1*%
X135407400Y-68554600D03*
D17*
X132867400Y-66014600D03*
X132867400Y-71094600D03*
X137947400Y-66014600D03*
X137947400Y-71094600D03*
%TD*%
%LPD*%
M02*
